<?xml version="1.0" encoding="UTF-8"?>
<svg id="svg1" xmlns="http://www.w3.org/2000/svg" xmlns:xlink="http://www.w3.org/1999/xlink" xmlns:svg="http://www.w3.org/2000/svg" xmlns:sodipodi="http://sodipodi.sourceforge.net/DTD/sodipodi-0.dtd" xmlns:inkscape="http://www.inkscape.org/namespaces/inkscape" version="1.1" viewBox="0 0 1440 320">
  <defs>
    <style>
      .cls-1 {
        clip-path: url(#clippath);
      }

      .cls-2 {
        fill: none;
      }

      .cls-2, .cls-3, .cls-4, .cls-5, .cls-6, .cls-7, .cls-8 {
        stroke-width: 0px;
      }

      .cls-3 {
        fill: #eb2126;
      }

      .cls-4 {
        fill: #144a8f;
      }

      .cls-5 {
        fill: #102349;
      }

      .cls-9 {
        isolation: isolate;
      }

      .cls-6 {
        fill: #2494d1;
      }

      .cls-7 {
        fill: #fff;
      }

      .cls-8 {
        fill: #a62126;
      }
    </style>
    <clipPath id="clippath">
      <rect class="cls-2" x="1036.7" y="229.8" width="291.1" height="27.2"/>
    </clipPath>
  </defs>
  <sodipodi:namedview id="namedview1" bordercolor="#000000" borderopacity="0.25" inkscape:current-layer="layer1" inkscape:cx="637.57017" inkscape:cy="89.053323" inkscape:deskcolor="#d1d1d1" inkscape:document-units="mm" inkscape:lockguides="false" inkscape:pagecheckerboard="0" inkscape:pageopacity="0.0" inkscape:showpageshadow="2" inkscape:window-height="1011" inkscape:window-maximized="1" inkscape:window-width="1920" inkscape:window-x="0" inkscape:window-y="0" inkscape:zoom="0.38740834" pagecolor="#ffffff" showgrid="false">
    <inkscape:grid id="grid1" color="#0099e5" dotted="false" empcolor="#0099e5" empopacity="0.30196078" empspacing="5" gridanglex="30" gridanglez="30" opacity="0.14901961" originx="0" originy="0" spacingx="0.26458333" spacingy="0.26458333" units="px" visible="false"/>
  </sodipodi:namedview>
  <g id="g2">
    <path id="rect1" class="cls-5" d="M10,10C17.1,2.9,30.2,0,30.2,0h1379.8s10.8.8,20,10c6.9,6.9,10,20,10,20v260s-.6,10.5-10,20c-7.6,7.6-20.1,10-20.1,10H29.9s-12-2.2-19.9-10C0,299.9,0,290,0,290V30s2.6-12.6,10-20Z" sodipodi:nodetypes="sccsccsccsccs"/>
  </g>
  <g>
    <g id="g1">
      <path id="path1" class="cls-7" d="M1092.8,90.3h30v110c0,15.5-8.9,23.2-26.6,23.2h-28.1c-17.6,0-26.4-7.7-26.4-23.2v-110h30v106c0,3.5,1.8,5.2,5.4,5.2h10.1c3.8,0,5.7-1.7,5.7-5.2v-106Z"/>
      <path id="path2" class="cls-7" d="M1143.9,90.3h55.5c17.7,0,26.6,7.7,26.6,23v86.9c0,15.5-8.9,23.2-26.6,23.2h-55.5V90.3ZM1196,197.7v-81.7c0-3.5-1.9-5.2-5.7-5.2h-16.5v92.2h16.5c3.8,0,5.7-1.7,5.7-5.2Z"/>
      <path id="path3" class="cls-7" d="M1291.4,196.3v-24.1c0-1.8-.4-3.1-1.3-3.8-.8-.8-2.3-1.3-4.4-1.3h-18.4c-16.5,0-24.7-7.8-24.7-23.5v-30.4c0-15.4,8.8-23,26.4-23h25.6c17.6,0,26.4,7.7,26.4,23v17.4h-30v-13.2c0-3.5-1.9-5.2-5.7-5.2h-7.1c-3.8,0-5.7,1.7-5.7,5.2v23.5c0,1.8.4,3.1,1.3,4,.8.7,2.3,1,4.4,1h18c8.9,0,15.4,2,19.3,5.9,3.9,3.8,5.9,9.4,5.9,17v31.4c0,15.5-8.8,23.2-26.4,23.2h-25.3c-17.7,0-26.6-7.7-26.6-23.2v-17.2h30v13.2c0,3.5,1.9,5.2,5.7,5.2h7.1c3.8,0,5.7-1.7,5.7-5.2Z"/>
      <path id="path4" class="cls-7" d="M966.3,206.1l-7.5,17.6-1.3,17.3h17.3l3.4-1.9,9.8.3v4.6h18.3l1.3-4.6h13.7s-3.8-33.7-10.4-38.2c-24.9,16.9-44.6,4.9-44.6,4.9"/>
      <path id="path5" class="cls-6" d="M1011.3,225.8l1,12.9h-4.8l3.8-12.9Z"/>
      <path id="path6" class="cls-6" d="M963.8,210.9s15,9,33.1,0c14.4-7.2-30.5-4.8-30.5-4.8l-2.6,4.8Z"/>
      <path id="path7" class="cls-3" d="M1021.4,246.5h-14.7l.9-7.1h13.7s.1,4.8.1,7.1"/>
      <path id="path8" class="cls-4" d="M1021.4,248.8h-14.7c-.3,0-.7,0-1-.2-.3-.1-.6-.3-.8-.6-.2-.2-.4-.5-.5-.8,0-.3-.1-.6,0-1l.9-7.1c0-.6.3-1.1.8-1.4.4-.4,1-.6,1.5-.6h13.7c.6,0,1.2.2,1.6.6.4.4.7,1,.7,1.6,0,0,.1,4.9.1,7.2,0,.6-.3,1.2-.7,1.6-.4.4-1,.7-1.6.7h0ZM1009.3,244.2h9.8c0-.9,0-1.7,0-2.5h-9.4l-.3,2.5Z"/>
      <path id="path9" class="cls-6" d="M1016.4,202.9s10.2-13.5,26.1-9.7c16,3.7,20.1-5.7,20.1-5.7,0,0-7.9,29-28.3,21,0,0,3.1,2.6,6,5.1-6.1,4.4-11.6,7-22.6.4"/>
      <path id="path10" class="cls-7" d="M1016,203.8s9.3-13.7,22.4-10.7c13.1,3.1,21-.2,21-.2,0,0-9.1,18.6-23.6,10-2.5-1.8-5.9-1.4-7.6.9-1.7,2.3-.9,5.6,1.6,7.5-3.8,1.6-8.9-.4-11.7-2.2"/>
      <path id="path11" class="cls-6" d="M970.6,208s1.6-4.1-4.2-1.9c-5.8,2.2-9.6,34.9-9.6,34.9h2.6c1.4,0,4.3-.3,4.2-1.7,0,0,.2-9.7.9-15.1,1.3-5,6.1-16.2,6.1-16.2h0Z"/>
      <path id="path12" class="cls-7" d="M1040.5,130.6c0,31.3-25,80.3-55.7,80.3s-55.7-49-55.7-80.3,25-43.8,55.7-43.8,55.7,12.5,55.7,43.8"/>
      <path id="path13" class="cls-4" d="M984.7,213.2c-32,0-58-50-58-82.6s21.2-46.1,58-46.1,58,16.8,58,46.1c0,32.6-26,82.6-58.1,82.6ZM984.7,89c-16.1,0-53.4,4-53.4,41.5s24.5,78,53.4,78,53.4-47.9,53.4-78-37.4-41.5-53.4-41.5Z"/>
      <path id="path14" class="cls-6" d="M937,125.4s-5.5.9-8.2-.2c-3.6-1.5,2.3-6,2.3-6l5.9,6.3Z"/>
      <path id="path15" class="cls-6" d="M998.1,119.5c0,7-4.6,9.3-13.3,12.6-9.8,0-29.6-5.6-29.6-12.6s21.6-12.6,31.4-12.6,11.4,5.7,11.4,12.6"/>
      <path id="path16" class="cls-6" d="M993.2,182.3s-3-12.7,6.5-16.9c-1.8,4.9-5.5,15.5-3.2,19.2,2.3,3.7-3.3-2.3-3.3-2.3Z"/>
      <path id="path17" class="cls-4" d="M984.7,213.2c-32,0-58-50-58-82.6s21.2-46.1,58-46.1,58,16.8,58,46.1c0,32.6-26,82.6-58.1,82.6ZM984.7,89c-16.1,0-53.4,4-53.4,41.5s24.5,78,53.4,78,53.4-47.9,53.4-78-37.4-41.5-53.4-41.5Z"/>
      <path id="path18" class="cls-6" d="M966.9,141.5s3.1,13.3,23.9,15.2c1.4.1,2.2-1.6,1.5-2.8-1-1.6-4.1-4.1-4.2-6.1,4.6.5,12.1,2.8,16.1.6.3-.1.5-.4.6-.6.2-.3.2-.6.2-.9,0-.3-.1-.6-.3-.9s-.4-.5-.7-.6c-2.6-1.2-2.4-5.5-3.6-7.7"/>
      <path id="path19" class="cls-7" d="M967.5,137.3s1.8,14.6,27.7,12.7c-1.5-2-3.2-4.1-3.2-7,5.1.6,11.6.7,14.9-3.1-3.1-.5-6.5-2.9-7.9-5.5"/>
      <path id="path20" class="cls-4" d="M990.7,152.5c-23.4,0-25.4-14.3-25.5-14.9,0-.6.2-1.2.5-1.6.4-.5.9-.7,1.5-.8.6,0,1.2,0,1.6.4.5.3.8.9.9,1.4,0,.5,1.9,10.9,20.9,10.9h.3c-.8-1.5-1.3-3.2-1.3-4.9,0-.3,0-.6.2-.9s.3-.6.6-.8c.2-.2.5-.4.8-.5.3,0,.6-.1,1,0,4.2.5,7.3.4,9.7-.3-2-1.2-3.7-2.9-4.9-4.9-.2-.5-.2-1.1,0-1.7s.6-1,1.1-1.3,1.1-.3,1.6-.2,1,.5,1.4.9c1.1,2,3.9,3.9,6.3,4.4.4,0,.8.2,1.1.5.3.3.5.6.7,1,.1.4.2.8,0,1.2,0,.4-.2.8-.5,1.1-3.3,3.9-8.8,4.4-13.7,4.2.6,1.1,1.3,2.1,2.1,3.1.3.3.4.7.5,1.1,0,.4,0,.8-.2,1.2-.2.4-.4.7-.8.9-.3.2-.7.4-1.2.4-1.6,0-3.2.1-4.6.1h0Z"/>
      <path id="path21" class="cls-7" d="M1002,117c0,4.6-7.7,12.9-17.2,12.9s-17.2-8.4-17.2-12.9,6.9-62.5,16.4-62.5,18,58,18,62.5Z"/>
      <path id="path22" class="cls-4" d="M984.7,132.2c-10.6,0-19.5-9.4-19.5-15.2,0-.7,5.8-64.9,18.7-64.9s20.3,64.2,20.3,64.9c0,5.9-8.9,15.2-19.5,15.2ZM983.9,56.7c-5.9,0-14.1,51.2-14.1,60.2s6.5,10.6,14.9,10.6,14.9-7.5,14.9-10.6-2.1-17.6-5.4-32.5c-6-27-10.3-27.8-10.3-27.8Z"/>
      <path id="path23" class="cls-4" d="M995.1,198.5c.2,1.2-1.8,0-3.8.3-2.1.4-3.5,2.4-3.7,1.2-.2-1.2,1-3.8,3.1-4.2,2.1-.4,4.2,1.5,4.4,2.7"/>
      <path id="path24" class="cls-4" d="M974.6,198.5c-.2,1.2,1.8,0,3.8.3,2.1.4,3.5,2.4,3.7,1.2.2-1.2-1-3.8-3.1-4.2-2.1-.4-4.2,1.5-4.4,2.7"/>
      <path id="path25" class="cls-7" d="M952.7,98.1s-13.6-6.7-26.2-5.9c-4.5,12.9.7,25.9,10.4,30.9"/>
      <path id="path26" class="cls-4" d="M936.8,125.4c-.4,0-.7,0-1.1-.3-11.2-5.8-16.1-20.3-11.5-33.7.1-.4.4-.8.8-1.1.4-.3.8-.4,1.2-.5,13.1-.9,26.8,5.9,27.4,6.2.5.3.9.8,1.1,1.3.2.6.1,1.2-.1,1.7-.3.5-.7.9-1.3,1.1-.6.2-1.2.2-1.7,0-.1,0-12.1-5.9-23.5-5.8-3.1,10.8,1,22.1,9.7,26.6.5.2.8.6,1,1.1.2.5.3,1,.1,1.5s-.4.9-.8,1.3-.9.5-1.4.5Z"/>
      <path id="path27" class="cls-6" d="M930.9,100.9c-.3,1.9,0,10,7.3,15.6,0,0,.1,0,.2.1,0,0,.2,0,.2,0,0,0,.1-.1.1-.2,0,0,0-.2,0-.2-.5-1.2-.7-2.5-.9-3.9,0,0,0-.2,0-.2,0,0,0-.1.2-.2,0,0,.1,0,.2,0,0,0,.2,0,.2,0,.7.4,1.5.8,3,.4.1,0,.2,0,.3-.2,0,0,.2-.2.2-.3,0-.1,0-.2,0-.3,0-.1,0-.2,0-.3-.4-.5-.6-1.1-.7-1.7,0-.1,0-.2,0-.3,0-.1,0-.2.2-.3,0,0,.2-.1.3-.2,0,0,.2,0,.3,0,2.7,0,4.9.4,6.6-.8"/>
      <path id="path28" class="cls-7" d="M947.6,106.1c-4.7-2.2-9.7-3.8-14.8-4.7l14.8,4.7Z"/>
      <path id="path29" class="cls-4" d="M947.6,108.4c-.4,0-.7,0-1-.2-4.5-2.1-9.3-3.6-14.2-4.5-.6-.1-1.1-.5-1.4-1-.3-.5-.5-1.1-.4-1.7,0-.6.4-1.1.9-1.5.5-.4,1.1-.5,1.7-.4,5.3,1,10.6,2.6,15.5,4.9.5.2.8.6,1.1,1.1.2.5.3,1,.2,1.5-.1.5-.4,1-.8,1.3-.4.3-.9.5-1.4.5Z"/>
      <path id="path30" class="cls-7" d="M1016.8,98.1s13.6-6.7,26.2-5.9c4.5,12.9-.7,25.9-10.4,30.9"/>
      <path id="path31" class="cls-4" d="M1032.7,125.4c-.5,0-1-.2-1.4-.5-.4-.3-.7-.8-.8-1.3-.1-.5,0-1,.1-1.5.2-.5.6-.9,1-1.1,8.7-4.5,12.8-15.8,9.7-26.6-11.4-.2-23.3,5.7-23.5,5.8-.5.2-1.2.2-1.7,0-.6-.2-1-.6-1.3-1.1-.3-.5-.3-1.1-.1-1.7.2-.6.6-1,1.1-1.3.6-.3,14.3-7,27.4-6.2.5,0,.9.2,1.2.5s.6.7.8,1.1c4.6,13.4-.3,27.9-11.5,33.7-.3.2-.7.3-1.1.3Z"/>
      <path id="path32" class="cls-6" d="M1038.6,100.9c.3,1.9,0,10-7.3,15.6,0,0-.1,0-.2.1,0,0-.2,0-.2,0s-.1-.1-.1-.2c0,0,0-.2,0-.2.4-1.2.7-2.5.9-3.9,0,0,0-.2,0-.2,0,0,0-.1-.2-.2s-.1,0-.2,0c0,0-.2,0-.2,0-.7.4-1.5.8-3,.4-.1,0-.2,0-.3-.2,0,0-.2-.2-.2-.3,0-.1,0-.2,0-.3s0-.2,0-.3c.3-.5.6-1.1.7-1.7,0-.1,0-.2,0-.3,0-.1,0-.2-.2-.3,0,0-.2-.1-.3-.2,0,0-.2,0-.3,0-2.7,0-4.9.4-6.6-.8"/>
      <path id="path33" class="cls-7" d="M1021.8,106.1c4.7-2.2,9.7-3.8,14.8-4.7l-14.8,4.7Z"/>
      <path id="path34" class="cls-4" d="M1021.8,108.4c-.5,0-1-.2-1.4-.5-.4-.3-.7-.8-.8-1.3s0-1,.2-1.5c.2-.5.6-.9,1.1-1.1,4.9-2.3,10.1-4,15.5-4.9.6,0,1.2,0,1.7.4.5.4.8.9.9,1.5s0,1.2-.4,1.7c-.3.5-.8.8-1.4,1-4.9.9-9.7,2.4-14.2,4.5-.3.2-.7.2-1,.2Z"/>
      <path id="path35" class="cls-7" d="M1030.3,178.1c-5.9,12.7-17.4,19.8-25.8,16-8.4-3.9-10.4-17.3-4.6-30,5.9-12.7,17.4-19.8,25.8-16,8.4,3.9,10.4,17.3,4.6,30Z"/>
      <path id="path36" class="cls-4" d="M1009.5,197.4c-2,0-4-.4-5.9-1.3-4.8-2.2-8-7-8.9-13.4-.9-6.1.2-13.1,3.3-19.6,6.4-13.8,19.3-21.5,28.8-17.1,9.5,4.4,12.1,19.2,5.7,33-3,6.5-7.6,11.9-12.8,15.2-3.4,2.1-6.9,3.2-10.1,3.2ZM1020.9,149.4c-6.6,0-14.5,6.3-18.9,15.7-2.6,5.7-3.7,11.8-2.9,17,.7,4.9,3,8.4,6.3,9.9,3.3,1.5,7.5,1,11.7-1.6,4.5-2.8,8.4-7.5,11.1-13.2,5.2-11.3,3.7-23.6-3.4-26.9-1.2-.6-2.5-.8-3.9-.8Z"/>
      <path id="path37" class="cls-4" d="M1018.6,171.1c0,2-.6,3.9-1.7,5.5-1.1,1.6-2.6,2.9-4.5,3.7s-3.8,1-5.7.6c-1.9-.4-3.7-1.3-5.1-2.7-1.4-1.4-2.3-3.2-2.7-5.1-.4-1.9-.2-3.9.6-5.7.8-1.8,2-3.4,3.7-4.5,1.6-1.1,3.6-1.7,5.5-1.7,2.6,0,5.2,1,7,2.9,1.9,1.9,2.9,4.4,2.9,7"/>
      <path id="path38" class="cls-7" d="M939.1,178.1c5.9,12.7,17.4,19.8,25.8,16,8.4-3.9,10.4-17.3,4.6-30-5.9-12.7-17.4-19.8-25.8-15.9-8.4,3.9-10.4,17.3-4.6,30"/>
      <path id="path39" class="cls-4" d="M960,197.4c-3.3,0-6.7-1.1-10.1-3.2-5.2-3.2-9.8-8.6-12.8-15.2-6.4-13.8-3.8-28.6,5.7-33,9.5-4.4,22.5,3.3,28.8,17.1,3,6.5,4.2,13.5,3.2,19.6-1,6.5-4.2,11.2-8.9,13.4-1.8.8-3.8,1.3-5.9,1.3ZM948.5,149.4c-1.3,0-2.7.3-3.9.8-7.1,3.3-8.7,15.6-3.4,26.9,2.6,5.7,6.6,10.4,11.1,13.2,4.2,2.6,8.3,3.2,11.7,1.6,3.3-1.6,5.6-5.1,6.3-9.9.8-5.2-.2-11.2-2.9-17-4.3-9.4-12.2-15.7-18.8-15.7Z"/>
      <path id="path40" class="cls-7" d="M939.1,178.1c5.9,12.7,17.4,19.8,25.8,16,8.4-3.9,10.4-17.3,4.6-30-5.9-12.7-17.4-19.8-25.8-15.9-8.4,3.9-10.4,17.3-4.6,30"/>
      <path id="path41" class="cls-4" d="M960,197.4c-3.3,0-6.7-1.1-10.1-3.2-5.2-3.2-9.8-8.6-12.8-15.2-6.4-13.8-3.8-28.6,5.7-33,9.5-4.4,22.5,3.3,28.8,17.1,3,6.5,4.2,13.5,3.2,19.6-1,6.5-4.2,11.2-8.9,13.4-1.8.8-3.8,1.3-5.9,1.3ZM948.5,149.4c-1.3,0-2.7.3-3.9.8-7.1,3.3-8.7,15.6-3.4,26.9,2.6,5.7,6.6,10.4,11.1,13.2,4.2,2.6,8.3,3.2,11.7,1.6,3.3-1.6,5.6-5.1,6.3-9.9.8-5.2-.2-11.2-2.9-17-4.3-9.4-12.2-15.7-18.8-15.7Z"/>
      <path id="path42" class="cls-4" d="M950.9,171.1c0,2,.6,3.9,1.7,5.5,1.1,1.6,2.6,2.9,4.5,3.7s3.8.9,5.7.6c1.9-.4,3.7-1.3,5.1-2.7,1.4-1.4,2.3-3.2,2.7-5.1.4-1.9.2-3.9-.6-5.7-.8-1.8-2-3.4-3.7-4.5-1.6-1.1-3.6-1.7-5.5-1.7s-5.2,1-7,2.9c-1.9,1.9-2.9,4.4-2.9,7Z"/>
      <path id="path43" class="cls-4" d="M970.8,171.1c0,2-.6,3.9-1.7,5.5-1.1,1.6-2.6,2.9-4.5,3.7-1.8.8-3.8.9-5.7.6-1.9-.4-3.7-1.3-5.1-2.7s-2.3-3.2-2.7-5.1c-.4-1.9-.2-3.9.6-5.7.8-1.8,2-3.4,3.7-4.5,1.6-1.1,3.6-1.7,5.5-1.7,2.6,0,5.2,1,7,2.9,1.9,1.9,2.9,4.4,2.9,7Z"/>
      <path id="path44" class="cls-7" d="M970.8,165.9c0,1.1-.3,2.3-1,3.2-.6.9-1.5,1.7-2.6,2.1-1.1.4-2.2.5-3.3.3-1.1-.2-2.1-.8-3-1.6-.8-.8-1.4-1.8-1.6-3-.2-1.1-.1-2.3.3-3.3.4-1.1,1.2-2,2.1-2.6.9-.6,2.1-1,3.2-1s3,.6,4.1,1.7c1.1,1.1,1.7,2.5,1.7,4.1Z"/>
      <path id="path45" class="cls-6" d="M972.7,193.2c-1.4,1.8-2.2,4-2,6.3.1,2.3,1.1,4.4,2.8,6,2.4,2.3,7.7,3.7,10.4,3.9,0,0-19.8-1.3-26.5-11.1,2.9-3,10.4-7,12.6-9.9,2.2-2.9,7-8.4,10.1-5.6"/>
      <path id="path46" class="cls-6" d="M977.1,182.2s3.8-21.5-12.6-27.7c3.5,8,10.9,25.3,7.4,31.8-3.5,6.5,5.3-4.1,5.3-4.1Z"/>
      <path id="path47" class="cls-4" d="M984.7,213.2c-11,0-22.2-5.9-32.1-17.1-.2-.2-.3-.4-.4-.7-5.9-2.8-11.5-8.6-15.1-16.4-6.4-13.8-3.8-28.6,5.7-33,4.8-2.2,10.5-1.5,16,1.9,5.3,3.2,9.8,8.6,12.8,15.2,3,6.4,4,13.1,3.3,18.8,2.7-2.5,6.4-3.9,10.1-3.9,3.7,0,7.3,1.6,10,4.2l8.2,8.2c.4.4.6,1,.6,1.6,0,.6-.3,1.1-.7,1.6-.4.4-1,.7-1.6.7-.6,0-1.2-.2-1.6-.6l-8.2-8.2c-1.8-1.8-4.3-2.9-7-2.9s-5.1,1-7,2.9l-8,8c0,0-.1.1-.2.2-1.1,1-2.3,1.9-3.6,2.5-1.8.8-3.7,1.2-5.6,1.2,6.2,5.8,14.7,11.2,24.5,11.2s1.2.2,1.6.7c.4.4.7,1,.7,1.6s-.2,1.2-.7,1.6c-.4.4-1,.7-1.6.7h0ZM941.2,177.2c5.3,11.5,15.5,18.2,22.7,14.8,7.1-3.3,8.7-15.6,3.5-26.9-2.6-5.7-6.6-10.4-11.1-13.2-4.2-2.6-8.3-3.2-11.7-1.6-7.1,3.3-8.7,15.6-3.4,26.9h0Z"/>
      <path id="path48" class="cls-4" d="M1029.6,219.7c-3.5,0-7.1-.9-11-2.8-.5-.3-.9-.8-1.1-1.3-.2-.6-.1-1.2.1-1.7.3-.5.7-1,1.3-1.2.6-.2,1.2-.2,1.7,0,7.3,3.5,12.2,2.6,16,.6-2-1.7-3.6-3.1-3.6-3.1-.4-.4-.7-.8-.8-1.4,0-.5,0-1.1.3-1.5.3-.5.7-.8,1.2-1,.5-.2,1.1-.2,1.6,0,4.3,1.7,8.2,1.7,11.8-.1,4.6-2.3,7.9-7,10-11.1-3.5,1.4-8.4,1.9-15.1.4-14.3-3.3-23.4,8.4-23.8,8.9-.4.5-.9.8-1.5.8-.6,0-1.2,0-1.7-.5-.5-.4-.8-.9-.9-1.5,0-.6,0-1.2.4-1.7.5-.6,11.3-14.6,28.5-10.6,13.7,3.2,17.4-4.1,17.5-4.4.2-.5.7-.9,1.2-1.2.5-.2,1.1-.2,1.7,0,.5.2,1,.6,1.2,1.1.3.5.3,1.1.2,1.7-.2.7-4.7,16.7-15.8,22.2-2.2,1.1-4.5,1.7-6.9,1.9.2.2.3.5.4.8,0,.3.1.6,0,.9,0,.3-.1.6-.3.9-.2.3-.4.5-.6.7-3.9,2.8-7.9,4.2-12.2,4.2h0Z"/>
      <path id="path49" class="cls-3" d="M976.5,242.6h-18.9v7.8h18.9v-7.8Z"/>
      <path id="path50" class="cls-3" d="M1005.7,246.1h-18.9v7.8h18.9v-7.8Z"/>
      <path id="path51" class="cls-4" d="M996,254.9c-.6,0-1.2-.2-1.6-.7-.4-.4-.7-1-.7-1.6v-3.2c0-.6.2-1.2.7-1.6.4-.4,1-.7,1.6-.7s1.2.2,1.6.7c.4.4.7,1,.7,1.6v3.2c0,.6-.2,1.2-.7,1.6-.4.4-1,.7-1.6.7Z"/>
      <path id="path52" class="cls-8" d="M957.9,241.7s2.6,0,4.6-.1c.6,0,1.1.8.8,1.6-.9,3-.1,5.5-.8,6.4-.8,1.1-5.5-.6-5.5-.6l.9-7.3Z"/>
      <path id="path53" class="cls-8" d="M986.6,245.6s2.6-.3,4.6-.7c.6-.1,1.2.7,1,1.5-.5,3.1.6,5.5,0,6.5-.7,1.2-5.6,0-5.6,0v-7.4Z"/>
      <path id="path54" class="cls-3" d="M976.1,114s9.7,8.1,16.3,6.3c4-1.1-.2,7.5-15.7,5.3-16.1-2.2-7.8-18.7-7.8-18.7l7.2,7Z"/>
      <path id="path55" class="cls-3" d="M978.2,97.2c1.1,2.6,9.5,6.6,15.4,6.2.4,0,.8,0,1.1.3.3.2.6.5.7.9,1.4,4.5,1.4,9.7.3,11.8-1.2,2-26.8-2.7-27-13.5-.1-10.8,4.2-11,4.2-11l5.3,5.3Z"/>
      <path id="path56" class="cls-3" d="M978.4,79.1c.9,2.5,7.5,6.5,11.9,6.9.5,0,1,.2,1.4.6.4.3.7.8.9,1.3,1.2,3.4,1.5,7.1,2,10.3.3,2.1-24-2.5-24.1-13.3,0-10.8,3.5-11,3.5-11l4.4,5.3Z"/>
      <path id="path57" class="cls-4" d="M992.9,118.7c-7.4,0-14-3.1-16.4-4.4-4.5-2.4-9.4-6.2-9.9-9.7,0-.6.1-1.2.5-1.6.4-.5.9-.8,1.5-.8.6,0,1.2,0,1.7.4.5.3.8.9.9,1.5.2.9,2.8,3.8,8.1,6.5,2.9,1.5,13.1,5.9,21.4,1.8.3-.2.6-.3.9-.3.3,0,.6,0,.9,0,.3,0,.6.2.8.4.2.2.4.5.6.7.1.3.2.6.2.9,0,.3,0,.6-.1.9-.1.3-.3.6-.5.8-.2.2-.5.4-.8.5-3.1,1.5-6.5,2.3-9.9,2.2ZM991.5,101.4c-4.9-.1-9.7-1.4-13.9-3.7-3.9-2.1-8.2-5.4-8.6-8.5,0-.6.1-1.2.5-1.7.4-.5.9-.8,1.5-.9.6,0,1.2,0,1.7.4s.8.9.9,1.5c.2.8,2.7,3.5,7.8,5.8,3,1.3,10.5,4.1,16.8,1,.5-.2,1.2-.3,1.7,0,.6.2,1,.6,1.3,1.1.3.5.3,1.1.1,1.7-.2.6-.5,1-1.1,1.3-2.7,1.3-5.7,2-8.7,1.9Z"/>
      <path id="path58" class="cls-3" d="M990.3,75.9c.1.5,0,1-.2,1.4-.2.4-.6.7-1.1.9-1.8.6-3.7,1-5.6,1-6.5.2-9.2-7.8-9.2-7.8,0,0,2.6-15.2,8.3-15.1,1.9,0,6.3,13.5,7.8,19.6"/>
      <path id="path59" class="cls-4" d="M984.7,132.2c-10.6,0-19.5-9.4-19.5-15.2s2.2-24.6,6.8-43.3c0-.2,0-.4.2-.6,2.9-11.6,6.8-21,11.7-21,13,0,20.3,64.2,20.3,64.9,0,5.9-8.9,15.2-19.5,15.2ZM975.6,79c-3.2,15-5.8,33-5.8,38s6.5,10.6,14.9,10.6,14.9-7.5,14.9-10.6-2.1-17.6-5.4-32.5c0-.3-.1-.7-.2-1-4.5,1.2-9.9.3-15.1-2.4-1.2-.6-2.3-1.3-3.3-2.1ZM976.8,73.8c.7.9,2.9,2.9,6.6,4.3,2.1.8,6,1.9,9.6.9-5.3-21.7-9-22.3-9.1-22.3-2.2,0-4.8,7.4-7.2,17.1h0Z"/>
      <path id="path60" class="cls-7" d="M1018.5,165.9c0,1.1-.3,2.3-1,3.2-.6.9-1.5,1.7-2.6,2.1-1.1.4-2.2.6-3.3.3-1.1-.2-2.1-.8-3-1.6-.8-.8-1.4-1.8-1.6-3-.2-1.1-.1-2.3.3-3.3s1.2-2,2.1-2.6c.9-.6,2.1-1,3.2-1s3,.6,4.1,1.7c1.1,1.1,1.7,2.5,1.7,4.1Z"/>
      <path id="path61" class="cls-6" d="M984.8,218.9l.2-.5c2-.4,5,1,5.8,2.8l2.6,7.5c.3,1,.4,2.1.1,3.2l-3,12-1.1-13.7-4.6-11.4Z"/>
      <path id="path62" class="cls-4" d="M966.6,252.4c-.6,0-1.2-.2-1.6-.7-.4-.4-.7-1-.7-1.6v-2.8c0-.6.2-1.2.7-1.6.4-.4,1-.7,1.6-.7s1.2.2,1.6.7c.4.4.7,1,.7,1.6v2.8c0,.6-.2,1.2-.7,1.6-.4.4-1,.7-1.6.7ZM974.9,243.2h-17.3c-.6,0-1.2-.2-1.6-.7-.4-.4-.7-1-.7-1.6s.2-1.2.7-1.6c.4-.4,1-.7,1.6-.7h17.3c.6,0,1.2.2,1.6.7.4.4.7,1,.7,1.6s-.2,1.2-.7,1.6c-.4.4-1,.7-1.6.7Z"/>
      <path id="path63" class="cls-4" d="M1004.6,246.3h-16.4c-.6,0-1.2-.2-1.6-.7-.4-.4-.7-1-.7-1.6s.2-1.2.7-1.6c.4-.4,1-.7,1.6-.7h16.4c.6,0,1.2.2,1.6.7.4.4.7,1,.7,1.6s-.2,1.2-.7,1.6c-.4.4-1,.7-1.6.7Z"/>
      <path id="path64" class="cls-6" d="M986.3,221.8c2.1,2.1,5.8,8,4.3,9.5-1.5,1.5-6.3.1-8.4-2-2.1-2.1-2.8-5-1.3-6.5,3.1,1.3,3.3-3.1,5.4-1h0Z"/>
      <path id="path65" class="cls-4" d="M974.7,252.7h-17.6c-.3,0-.6,0-.9-.2-.3-.1-.6-.3-.8-.5-.2-.2-.4-.5-.5-.8-.1-.3-.2-.6-.1-.9l1.8-26.8c0-.2,0-.4.1-.7l7-18.6c.2-.5.7-1,1.2-1.2s1.2-.2,1.7,0c.6.2,1,.6,1.3,1.2.3.5.3,1.1.1,1.7l-6.9,18.3-1.6,24h12.9l.3-14.9c0-.3,0-.6.2-.9l4-9c.1-.3.3-.6.5-.8.2-.2.5-.4.8-.5.3-.1.6-.2.9-.2.3,0,.6,0,.9.2.3.1.5.3.8.5.2.2.4.5.5.8.1.3.1.6.1.9,0,.3-.1.6-.2.9l-3.8,8.6-.4,16.7c0,.6-.3,1.2-.7,1.6-.4.4-1,.7-1.6.6Z"/>
      <path id="path66" class="cls-3" d="M988,239.4h-11.9v7.1h11.9v-7.1Z"/>
      <path id="path67" class="cls-4" d="M988,248.8h-11.9c-.6,0-1.2-.2-1.6-.7-.4-.4-.7-1-.7-1.6v-7.1c0-.6.2-1.2.7-1.6.4-.4,1-.7,1.6-.7h11.9c.6,0,1.2.2,1.6.7.4.4.7,1,.7,1.6v7.1c0,.6-.2,1.2-.7,1.6-.4.4-1,.7-1.6.7h0ZM978.4,244.2h7.3v-2.5h-7.3v2.5Z"/>
      <path id="path68" class="cls-4" d="M1005,254.9h-17.6c-.3,0-.6,0-.9-.2-.3-.1-.6-.3-.8-.6-.2-.2-.4-.5-.5-.8-.1-.3-.1-.6-.1-.9l2-21.7-4-9.2c-.2-.6-.2-1.2,0-1.7.2-.6.7-1,1.2-1.2.5-.2,1.2-.3,1.7,0,.6.2,1,.6,1.3,1.2l4.2,9.7c.2.4.2.8.2,1.2l-1.8,19.8h13.1l3.8-24.8c0-.3.1-.6.3-.9.2-.3.4-.5.6-.7.2-.2.5-.3.8-.4.3,0,.6,0,.9,0s.6.2.9.3.5.4.7.6c.2.3.3.5.4.8s0,.6,0,.9l-2.7,18c.1,0,.2,0,.3,0h2.9c.1-.5.4-.9.8-1.2.4-.3.9-.4,1.4-.4s1,.2,1.4.4c.4.3.7.7.8,1.2h2.8c-.4-33.7-10.2-42.8-10.3-42.9-.5-.4-.7-1-.8-1.6,0-.6.2-1.2.6-1.7.4-.5,1-.7,1.6-.8.6,0,1.2.1,1.7.5.5.4,11.9,10.5,11.9,48.7s-.2,1.2-.7,1.6c-.4.4-1,.7-1.6.7h-12.5c-.3,0-.7,0-1-.2l-.7,4.4c0,.5-.4,1-.8,1.4-.4.4-.9.5-1.5.5h0ZM981.5,247.7c-.6,0-1.2-.2-1.6-.7-.4-.4-.7-1-.7-1.6v-.5c0-.6.2-1.2.7-1.6.4-.4,1-.7,1.6-.7s1.2.2,1.6.7c.4.4.7,1,.7,1.6v.5c0,.6-.2,1.2-.7,1.6-.4.4-1,.7-1.6.7Z"/>
      <path id="path69" class="cls-7" d="M966.3,206.1l-7.5,17.6-1.3,17.3h17.3l3.4-1.9,9.8.3v4.6h18.3l1.3-4.6h13.7s-3.8-33.7-10.4-38.2c-24.9,16.9-44.6,4.9-44.6,4.9"/>
      <path id="path70" class="cls-6" d="M1011.3,225.8l1,12.9h-4.8l3.8-12.9Z"/>
      <path id="path71" class="cls-6" d="M963.8,210.9s15,9,33.1,0c14.4-7.2-30.5-4.8-30.5-4.8l-2.6,4.8Z"/>
      <path id="path72" class="cls-3" d="M1021.4,246.5h-14.7l.9-7.1h13.7s.1,4.8.1,7.1"/>
      <path id="path73" class="cls-4" d="M1021.4,248.8h-14.7c-.3,0-.7,0-1-.2-.3-.1-.6-.3-.8-.6-.2-.2-.4-.5-.5-.8,0-.3-.1-.6,0-1l.9-7.1c0-.6.3-1.1.8-1.4.4-.4,1-.6,1.5-.6h13.7c.6,0,1.2.2,1.6.6.4.4.7,1,.7,1.6,0,0,.1,4.9.1,7.2,0,.6-.3,1.2-.7,1.6-.4.4-1,.7-1.6.7h0ZM1009.3,244.2h9.8c0-.9,0-1.7,0-2.5h-9.4l-.3,2.5Z"/>
      <path id="path74" class="cls-6" d="M1016.4,202.9s10.2-13.5,26.1-9.7c16,3.7,20.1-5.7,20.1-5.7,0,0-7.9,29-28.3,21,0,0,3.1,2.6,6,5.1-6.1,4.4-11.6,7-22.6.4"/>
      <path id="path75" class="cls-7" d="M1015,205.2s10.3-15.1,23.4-12c13.1,3.1,21-.2,21-.2,0,0-9.1,18.6-23.6,10-2.5-1.8-5.9-1.4-7.6.9-1.7,2.3-.9,5.6,1.6,7.5-3.8,1.6-8.9-.4-11.7-2.2"/>
      <path id="path76" class="cls-6" d="M970.6,208s1.6-4.1-4.2-1.9c-5.8,2.2-9.6,34.9-9.6,34.9h2.6c1.4,0,4.3-.3,4.2-1.7,0,0,.2-9.7.9-15.1,1.3-5,6.1-16.2,6.1-16.2h0Z"/>
      <path id="path77" class="cls-7" d="M1040.5,130.6c0,31.3-25,80.3-55.7,80.3s-55.7-49-55.7-80.3,25-43.8,55.7-43.8,55.7,12.5,55.7,43.8"/>
      <path id="path78" class="cls-4" d="M984.7,213.2c-32,0-58-50-58-82.6s21.2-46.1,58-46.1,58,16.8,58,46.1c0,32.6-26,82.6-58.1,82.6ZM984.7,89c-16.1,0-53.4,4-53.4,41.5s24.5,78,53.4,78,53.4-47.9,53.4-78-37.4-41.5-53.4-41.5Z"/>
      <path id="path79" class="cls-6" d="M937,125.4s-5.5.9-8.2-.2c-3.6-1.5,2.3-6,2.3-6l5.9,6.3Z"/>
      <path id="path80" class="cls-6" d="M998.1,119.5c0,7-4.6,9.3-13.3,12.6-9.8,0-29.6-5.6-29.6-12.6s21.6-12.6,31.4-12.6,11.4,5.7,11.4,12.6"/>
      <path id="path81" class="cls-6" d="M993.2,182.3s-3-12.7,6.5-16.9c-1.8,4.9-5.5,15.5-3.2,19.2,2.3,3.7-3.3-2.3-3.3-2.3Z"/>
      <path id="path82" class="cls-4" d="M984.7,213.2c-32,0-58-50-58-82.6s21.2-46.1,58-46.1,58,16.8,58,46.1c0,32.6-26,82.6-58.1,82.6ZM984.7,89c-16.1,0-53.4,4-53.4,41.5s24.5,78,53.4,78,53.4-47.9,53.4-78-37.4-41.5-53.4-41.5Z"/>
      <path id="path83" class="cls-6" d="M966.9,141.5s3.1,13.3,23.9,15.2c1.4.1,2.2-1.6,1.5-2.8-1-1.6-4.1-4.1-4.2-6.1,4.6.5,12.1,2.8,16.1.6.3-.1.5-.4.6-.6.2-.3.2-.6.2-.9,0-.3-.1-.6-.3-.9s-.4-.5-.7-.6c-2.6-1.2-2.4-5.5-3.6-7.7"/>
      <path id="path84" class="cls-7" d="M967.5,137.3s1.8,14.6,27.7,12.7c-1.5-2-3.2-4.1-3.2-7,5.1.6,11.6.7,14.9-3.1-3.1-.5-6.5-2.9-7.9-5.5"/>
      <path id="path85" class="cls-4" d="M990.7,152.5c-23.4,0-25.4-14.3-25.5-14.9,0-.6.2-1.2.5-1.6.4-.5.9-.7,1.5-.8.6,0,1.2,0,1.6.4.5.3.8.9.9,1.4,0,.5,1.9,10.9,20.9,10.9h.3c-.8-1.5-1.3-3.2-1.3-4.9,0-.3,0-.6.2-.9s.3-.6.6-.8c.2-.2.5-.4.8-.5.3,0,.6-.1,1,0,4.2.5,7.3.4,9.7-.3-2-1.2-3.7-2.9-4.9-4.9-.2-.5-.2-1.1,0-1.7s.6-1,1.1-1.3,1.1-.3,1.6-.2,1,.5,1.4.9c1.1,2,3.9,3.9,6.3,4.4.4,0,.8.2,1.1.5.3.3.5.6.7,1,.1.4.2.8,0,1.2,0,.4-.2.8-.5,1.1-3.3,3.9-8.8,4.4-13.7,4.2.6,1.1,1.3,2.1,2.1,3.1.3.3.4.7.5,1.1,0,.4,0,.8-.2,1.2-.2.4-.4.7-.8.9-.3.2-.7.4-1.2.4-1.6,0-3.2.1-4.6.1h0Z"/>
      <path id="path86" class="cls-7" d="M1002,117c0,4.6-7.7,12.9-17.2,12.9s-17.2-8.4-17.2-12.9,6.9-62.5,16.4-62.5,18,58,18,62.5Z"/>
      <path id="path87" class="cls-4" d="M984.7,132.2c-10.6,0-19.5-9.4-19.5-15.2,0-.7,5.8-64.9,18.7-64.9s20.3,64.2,20.3,64.9c0,5.9-8.9,15.2-19.5,15.2ZM983.9,56.7c-5.9,0-14.1,51.2-14.1,60.2s6.5,10.6,14.9,10.6,14.9-7.5,14.9-10.6-2.1-17.6-5.4-32.5c-6-27-10.3-27.8-10.3-27.8Z"/>
      <path id="path88" class="cls-4" d="M995.1,198.5c.2,1.2-1.8,0-3.8.3-2.1.4-3.5,2.4-3.7,1.2-.2-1.2,1-3.8,3.1-4.2,2.1-.4,4.2,1.5,4.4,2.7"/>
      <path id="path89" class="cls-4" d="M974.6,198.5c-.2,1.2,1.8,0,3.8.3,2.1.4,3.5,2.4,3.7,1.2.2-1.2-1-3.8-3.1-4.2-2.1-.4-4.2,1.5-4.4,2.7"/>
      <path id="path90" class="cls-7" d="M952.7,98.1s-13.6-6.7-26.2-5.9c-4.5,12.9.7,25.9,10.4,30.9"/>
      <path id="path91" class="cls-4" d="M936.8,125.4c-.4,0-.7,0-1.1-.3-11.2-5.8-16.1-20.3-11.5-33.7.1-.4.4-.8.8-1.1.4-.3.8-.4,1.2-.5,13.1-.9,26.8,5.9,27.4,6.2.5.3.9.8,1.1,1.3.2.6.1,1.2-.1,1.7-.3.5-.7.9-1.3,1.1-.6.2-1.2.2-1.7,0-.1,0-12.1-5.9-23.5-5.8-3.1,10.8,1,22.1,9.7,26.6.5.2.8.6,1,1.1.2.5.3,1,.1,1.5s-.4.9-.8,1.3-.9.5-1.4.5Z"/>
      <path id="path92" class="cls-6" d="M930.9,100.9c-.3,1.9,0,10,7.3,15.6,0,0,.1,0,.2.1,0,0,.2,0,.2,0,0,0,.1-.1.1-.2,0,0,0-.2,0-.2-.5-1.2-.7-2.5-.9-3.9,0,0,0-.2,0-.2,0,0,0-.1.2-.2,0,0,.1,0,.2,0,0,0,.2,0,.2,0,.7.4,1.5.8,3,.4.1,0,.2,0,.3-.2,0,0,.2-.2.2-.3,0-.1,0-.2,0-.3,0-.1,0-.2,0-.3-.4-.5-.6-1.1-.7-1.7,0-.1,0-.2,0-.3,0-.1,0-.2.2-.3,0,0,.2-.1.3-.2,0,0,.2,0,.3,0,2.7,0,4.9.4,6.6-.8"/>
      <path id="path93" class="cls-7" d="M947.6,106.1c-4.7-2.2-9.7-3.8-14.8-4.7l14.8,4.7Z"/>
      <path id="path94" class="cls-4" d="M947.6,108.4c-.4,0-.7,0-1-.2-4.5-2.1-9.3-3.6-14.2-4.5-.6-.1-1.1-.5-1.4-1-.3-.5-.5-1.1-.4-1.7,0-.6.4-1.1.9-1.5.5-.4,1.1-.5,1.7-.4,5.3,1,10.6,2.6,15.5,4.9.5.2.8.6,1.1,1.1.2.5.3,1,.2,1.5-.1.5-.4,1-.8,1.3-.4.3-.9.5-1.4.5Z"/>
      <path id="path95" class="cls-7" d="M1016.8,98.1s13.6-6.7,26.2-5.9c4.5,12.9-.7,25.9-10.4,30.9"/>
      <path id="path96" class="cls-4" d="M1032.7,125.4c-.5,0-1-.2-1.4-.5-.4-.3-.7-.8-.8-1.3-.1-.5,0-1,.1-1.5.2-.5.6-.9,1-1.1,8.7-4.5,12.8-15.8,9.7-26.6-11.4-.2-23.3,5.7-23.5,5.8-.5.2-1.2.2-1.7,0-.6-.2-1-.6-1.3-1.1-.3-.5-.3-1.1-.1-1.7.2-.6.6-1,1.1-1.3.6-.3,14.3-7,27.4-6.2.5,0,.9.2,1.2.5s.6.7.8,1.1c4.6,13.4-.3,27.9-11.5,33.7-.3.2-.7.3-1.1.3Z"/>
      <path id="path97" class="cls-6" d="M1038.6,100.9c.3,1.9,0,10-7.3,15.6,0,0-.1,0-.2.1,0,0-.2,0-.2,0s-.1-.1-.1-.2c0,0,0-.2,0-.2.4-1.2.7-2.5.9-3.9,0,0,0-.2,0-.2,0,0,0-.1-.2-.2s-.1,0-.2,0c0,0-.2,0-.2,0-.7.4-1.5.8-3,.4-.1,0-.2,0-.3-.2,0,0-.2-.2-.2-.3,0-.1,0-.2,0-.3s0-.2,0-.3c.3-.5.6-1.1.7-1.7,0-.1,0-.2,0-.3,0-.1,0-.2-.2-.3,0,0-.2-.1-.3-.2,0,0-.2,0-.3,0-2.7,0-4.9.4-6.6-.8"/>
      <path id="path98" class="cls-7" d="M1021.8,106.1c4.7-2.2,9.7-3.8,14.8-4.7l-14.8,4.7Z"/>
      <path id="path99" class="cls-4" d="M1021.8,108.4c-.5,0-1-.2-1.4-.5-.4-.3-.7-.8-.8-1.3s0-1,.2-1.5c.2-.5.6-.9,1.1-1.1,4.9-2.3,10.1-4,15.5-4.9.6,0,1.2,0,1.7.4.5.4.8.9.9,1.5s0,1.2-.4,1.7c-.3.5-.8.8-1.4,1-4.9.9-9.7,2.4-14.2,4.5-.3.2-.7.2-1,.2Z"/>
      <path id="path100" class="cls-7" d="M1030.3,178.1c-5.9,12.7-17.4,19.8-25.8,16-8.4-3.9-10.4-17.3-4.6-30,5.9-12.7,17.4-19.8,25.8-16,8.4,3.9,10.4,17.3,4.6,30Z"/>
      <path id="path101" class="cls-4" d="M1009.5,197.4c-2,0-4-.4-5.9-1.3-4.8-2.2-8-7-8.9-13.4-.9-6.1.2-13.1,3.3-19.6,6.4-13.8,19.3-21.5,28.8-17.1,9.5,4.4,12.1,19.2,5.7,33-3,6.5-7.6,11.9-12.8,15.2-3.4,2.1-6.9,3.2-10.1,3.2ZM1020.9,149.4c-6.6,0-14.5,6.3-18.9,15.7-2.6,5.7-3.7,11.8-2.9,17,.7,4.9,3,8.4,6.3,9.9,3.3,1.5,7.5,1,11.7-1.6,4.5-2.8,8.4-7.5,11.1-13.2,5.2-11.3,3.7-23.6-3.4-26.9-1.2-.6-2.5-.8-3.9-.8Z"/>
      <path id="path102" class="cls-7" d="M939.1,178.1c5.9,12.7,17.4,19.8,25.8,16,8.4-3.9,10.4-17.3,4.6-30-5.9-12.7-17.4-19.8-25.8-15.9-8.4,3.9-10.4,17.3-4.6,30"/>
      <path id="path103" class="cls-4" d="M960,197.4c-3.3,0-6.7-1.1-10.1-3.2-5.2-3.2-9.8-8.6-12.8-15.2-6.4-13.8-3.8-28.6,5.7-33,9.5-4.4,22.5,3.3,28.8,17.1,3,6.5,4.2,13.5,3.2,19.6-1,6.5-4.2,11.2-8.9,13.4-1.8.8-3.8,1.3-5.9,1.3ZM948.5,149.4c-1.3,0-2.7.3-3.9.8-7.1,3.3-8.7,15.6-3.4,26.9,2.6,5.7,6.6,10.4,11.1,13.2,4.2,2.6,8.3,3.2,11.7,1.6,3.3-1.6,5.6-5.1,6.3-9.9.8-5.2-.2-11.2-2.9-17-4.3-9.4-12.2-15.7-18.8-15.7Z"/>
      <path id="path104" class="cls-7" d="M939.1,178.1c5.9,12.7,17.4,19.8,25.8,16,8.4-3.9,10.4-17.3,4.6-30-5.9-12.7-17.4-19.8-25.8-15.9-8.4,3.9-10.4,17.3-4.6,30"/>
      <path id="path105" class="cls-4" d="M960,197.4c-3.3,0-6.7-1.1-10.1-3.2-5.2-3.2-9.8-8.6-12.8-15.2-6.4-13.8-3.8-28.6,5.7-33,9.5-4.4,22.5,3.3,28.8,17.1,3,6.5,4.2,13.5,3.2,19.6-1,6.5-4.2,11.2-8.9,13.4-1.8.8-3.8,1.3-5.9,1.3ZM948.5,149.4c-1.3,0-2.7.3-3.9.8-7.1,3.3-8.7,15.6-3.4,26.9,2.6,5.7,6.6,10.4,11.1,13.2,4.2,2.6,8.3,3.2,11.7,1.6,3.3-1.6,5.6-5.1,6.3-9.9.8-5.2-.2-11.2-2.9-17-4.3-9.4-12.2-15.7-18.8-15.7Z"/>
      <path id="path106" class="cls-4" d="M970.3,168.2c-.4.8-.9,1.5-1.6,2.1-.7.6-1.5,1-2.3,1.2-.9.2-1.7.2-2.6,0-.9-.2-1.7-.6-2.4-1.1-.7-.5-1.2-1.2-1.6-2-.4-.8-.6-1.7-.6-2.5,0-.9.2-1.7.6-2.5s1-1.5,1.7-2c-.2,0-.4,0-.7,0-2.1,0-4.2.6-6,1.8-1.8,1.2-3.1,3-3.8,5-.7,2-.7,4.2,0,6.3.6,2,1.9,3.8,3.6,5.1s3.8,2,5.9,2c2.1,0,4.2-.6,6-1.9,1.7-1.2,3-3,3.7-5.1.7-2,.7-4.2,0-6.3Z"/>
      <path id="path107" class="cls-6" d="M972.7,193.2c-1.4,1.8-2.2,4-2,6.3.1,2.3,1.1,4.4,2.8,6,2.4,2.3,7.7,3.7,10.4,3.9,0,0-19.8-1.3-26.5-11.1,2.9-3,10.4-7,12.6-9.9,2.2-2.9,7-8.4,10.1-5.6"/>
      <path id="path108" class="cls-6" d="M977.1,182.2s3.8-21.5-12.6-27.7c3.5,8,10.9,25.3,7.4,31.8-3.5,6.5,5.3-4.1,5.3-4.1Z"/>
      <path id="path109" class="cls-4" d="M984.7,213.2c-11,0-22.2-5.9-32.1-17.1-.2-.2-.3-.4-.4-.7-5.9-2.8-11.5-8.6-15.1-16.4-6.4-13.8-3.8-28.6,5.7-33,4.8-2.2,10.5-1.5,16,1.9,5.3,3.2,9.8,8.6,12.8,15.2,3,6.4,4,13.1,3.3,18.8,2.7-2.5,6.4-3.9,10.1-3.9,3.7,0,7.3,1.6,10,4.2l8.2,8.2c.4.4.6,1,.6,1.6,0,.6-.3,1.1-.7,1.6-.4.4-1,.7-1.6.7-.6,0-1.2-.2-1.6-.6l-8.2-8.2c-1.8-1.8-4.3-2.9-7-2.9s-5.1,1-7,2.9l-8,8c0,0-.1.1-.2.2-1.1,1-2.3,1.9-3.6,2.5-1.8.8-3.7,1.2-5.6,1.2,6.2,5.8,14.7,11.2,24.5,11.2s1.2.2,1.6.7c.4.4.7,1,.7,1.6s-.2,1.2-.7,1.6c-.4.4-1,.7-1.6.7h0ZM941.2,177.2c5.3,11.5,15.5,18.2,22.7,14.8,7.1-3.3,8.7-15.6,3.5-26.9-2.6-5.7-6.6-10.4-11.1-13.2-4.2-2.6-8.3-3.2-11.7-1.6-7.1,3.3-8.7,15.6-3.4,26.9h0Z"/>
      <path id="path110" class="cls-4" d="M1029.2,219.6c-4.1,0-8.2-1-11.9-2.9-.5-.3-.9-.8-1.1-1.3-.2-.6-.1-1.2.1-1.7.3-.5.7-.9,1.3-1.2.6-.2,1.2-.2,1.7,0,6.2,3,12.2,3.2,17.3.8-2-1.7-3.6-3-3.6-3-.4-.4-.7-.8-.8-1.4,0-.5,0-1.1.3-1.5.3-.5.7-.8,1.2-1s1.1-.2,1.6,0c4.3,1.7,8.2,1.7,11.8-.1,4.6-2.3,7.9-7,10-11.1-3.5,1.4-8.4,1.9-15.1.4-14.3-3.4-25.1,10-25.2,10.1-.4.4-.9.7-1.5.8-.6,0-1.2-.1-1.6-.5s-.8-.9-.9-1.5c0-.6,0-1.2.4-1.7.5-.6,12.7-15.8,29.9-11.7,13.7,3.2,17.4-4.1,17.5-4.4.2-.5.7-.9,1.2-1.2.5-.2,1.1-.2,1.7,0,.5.2,1,.6,1.2,1.1.3.5.3,1.1.2,1.7-.2.7-4.7,16.7-15.8,22.2-2.2,1.1-4.5,1.7-6.9,1.9.2.2.3.5.4.8,0,.3.1.6,0,.9,0,.3-.1.6-.3.9-.2.3-.4.5-.6.7-3.7,2.7-8.1,4.1-12.6,4.1h0Z"/>
      <path id="path111" class="cls-3" d="M976.5,242.6h-18.9v7.8h18.9v-7.8Z"/>
      <path id="path112" class="cls-3" d="M1005.7,246.1h-18.9v7.8h18.9v-7.8Z"/>
      <path id="path113" class="cls-4" d="M996,254.9c-.6,0-1.2-.2-1.6-.7-.4-.4-.7-1-.7-1.6v-3.2c0-.6.2-1.2.7-1.6.4-.4,1-.7,1.6-.7s1.2.2,1.6.7c.4.4.7,1,.7,1.6v3.2c0,.6-.2,1.2-.7,1.6-.4.4-1,.7-1.6.7Z"/>
      <path id="path114" class="cls-8" d="M957.9,241.7s2.6,0,4.6-.1c.6,0,1.1.8.8,1.6-.9,3-.1,5.5-.8,6.4-.8,1.1-5.5-.6-5.5-.6l.9-7.3Z"/>
      <path id="path115" class="cls-8" d="M986.6,245.6s2.6-.3,4.6-.7c.6-.1,1.2.7,1,1.5-.5,3.1.6,5.5,0,6.5-.7,1.2-5.6,0-5.6,0v-7.4Z"/>
      <path id="path116" class="cls-3" d="M976.1,114s9.7,8.1,16.3,6.3c4-1.1-.2,7.5-15.7,5.3-16.1-2.2-7.8-18.7-7.8-18.7l7.2,7Z"/>
      <path id="path117" class="cls-3" d="M978.2,97.2c1.1,2.6,9.5,6.6,15.4,6.2.4,0,.8,0,1.1.3.3.2.6.5.7.9,1.4,4.5,1.4,9.7.3,11.8-1.2,2-26.8-2.7-27-13.5-.1-10.8,4.2-11,4.2-11l5.3,5.3Z"/>
      <path id="path118" class="cls-3" d="M978.4,79.1c.9,2.5,7.5,6.5,11.9,6.9.5,0,1,.2,1.4.6.4.3.7.8.9,1.3,1.2,3.4,1.5,7.1,2,10.3.3,2.1-24-2.5-24.1-13.3,0-10.8,3.5-11,3.5-11l4.4,5.3Z"/>
      <path id="path119" class="cls-4" d="M992.9,118.7c-7.4,0-14-3.1-16.4-4.4-4.5-2.4-9.4-6.2-9.9-9.7,0-.6.1-1.2.5-1.6.4-.5.9-.8,1.5-.8.6,0,1.2,0,1.7.4.5.3.8.9.9,1.5.2.9,2.8,3.8,8.1,6.5,2.9,1.5,13.1,5.9,21.4,1.8.3-.2.6-.3.9-.3.3,0,.6,0,.9,0,.3,0,.6.2.8.4.2.2.4.5.6.7.1.3.2.6.2.9,0,.3,0,.6-.1.9-.1.3-.3.6-.5.8-.2.2-.5.4-.8.5-3.1,1.5-6.5,2.3-9.9,2.2ZM991.5,101.4c-4.9-.1-9.7-1.4-13.9-3.7-3.9-2.1-8.2-5.4-8.6-8.5,0-.6.1-1.2.5-1.7.4-.5.9-.8,1.5-.9.6,0,1.2,0,1.7.4s.8.9.9,1.5c.2.8,2.7,3.5,7.8,5.8,3,1.3,10.5,4.1,16.8,1,.5-.2,1.2-.3,1.7,0,.6.2,1,.6,1.3,1.1.3.5.3,1.1.1,1.7-.2.6-.5,1-1.1,1.3-2.7,1.3-5.7,2-8.7,1.9Z"/>
      <path id="path120" class="cls-3" d="M990.3,75.9c.1.5,0,1-.2,1.4-.2.4-.6.7-1.1.9-1.8.6-3.7,1-5.6,1-6.5.2-9.2-7.8-9.2-7.8,0,0,2.6-15.2,8.3-15.1,1.9,0,6.3,13.5,7.8,19.6"/>
      <path id="path121" class="cls-4" d="M984.7,132.2c-10.6,0-19.5-9.4-19.5-15.2s2.2-24.6,6.8-43.3c0-.2,0-.4.2-.6,2.9-11.6,6.8-21,11.7-21,13,0,20.3,64.2,20.3,64.9,0,5.9-8.9,15.2-19.5,15.2ZM975.6,79c-3.2,15-5.8,33-5.8,38s6.5,10.6,14.9,10.6,14.9-7.5,14.9-10.6-2.1-17.6-5.4-32.5c0-.3-.1-.7-.2-1-4.5,1.2-9.9.3-15.1-2.4-1.2-.6-2.3-1.3-3.3-2.1ZM976.8,73.8c.7.9,2.9,2.9,6.6,4.3,2.1.8,6,1.9,9.6.9-5.3-21.7-9-22.3-9.1-22.3-2.2,0-4.8,7.4-7.2,17.1h0Z"/>
      <path id="path122" class="cls-4" d="M1018,168.1c-.3.8-.9,1.5-1.5,2.1-.7.6-1.5,1-2.3,1.2-.9.2-1.8.2-2.6,0s-1.7-.6-2.4-1.1c-.7-.5-1.3-1.2-1.6-2-.4-.8-.6-1.7-.6-2.6,0-.9.2-1.8.6-2.5.4-.8,1-1.5,1.7-2-.2,0-.4,0-.7,0-2,0-3.9.6-5.5,1.7-1.6,1.1-2.9,2.6-3.7,4.5-.8,1.8-.9,3.8-.6,5.7.4,1.9,1.3,3.7,2.7,5.1,1.4,1.4,3.2,2.3,5.1,2.7,1.9.4,3.9.2,5.7-.6,1.8-.8,3.4-2,4.5-3.7,1.1-1.6,1.7-3.6,1.7-5.5,0-1-.2-2-.5-3Z"/>
      <path id="path123" class="cls-6" d="M984.8,218.9l.2-.5c2-.4,5,1,5.8,2.8l2.6,7.5c.3,1,.4,2.1.1,3.2l-3,12-1.1-13.7-4.6-11.4Z"/>
      <path id="path124" class="cls-4" d="M966.6,252.4c-.6,0-1.2-.2-1.6-.7-.4-.4-.7-1-.7-1.6v-2.8c0-.6.2-1.2.7-1.6.4-.4,1-.7,1.6-.7s1.2.2,1.6.7c.4.4.7,1,.7,1.6v2.8c0,.6-.2,1.2-.7,1.6-.4.4-1,.7-1.6.7ZM974.9,243.2h-17.3c-.6,0-1.2-.2-1.6-.7-.4-.4-.7-1-.7-1.6s.2-1.2.7-1.6c.4-.4,1-.7,1.6-.7h17.3c.6,0,1.2.2,1.6.7.4.4.7,1,.7,1.6s-.2,1.2-.7,1.6c-.4.4-1,.7-1.6.7Z"/>
      <path id="path125" class="cls-4" d="M1004.6,246.3h-16.4c-.6,0-1.2-.2-1.6-.7-.4-.4-.7-1-.7-1.6s.2-1.2.7-1.6c.4-.4,1-.7,1.6-.7h16.4c.6,0,1.2.2,1.6.7.4.4.7,1,.7,1.6s-.2,1.2-.7,1.6c-.4.4-1,.7-1.6.7Z"/>
      <path id="path126" class="cls-6" d="M986.3,221.8c2.1,2.1,5.8,8,4.3,9.5-1.5,1.5-6.3.1-8.4-2-2.1-2.1-2.8-5-1.3-6.5,3.1,1.3,3.3-3.1,5.4-1h0Z"/>
      <path id="path127" class="cls-4" d="M974.7,252.7h-17.6c-.3,0-.6,0-.9-.2-.3-.1-.6-.3-.8-.5-.2-.2-.4-.5-.5-.8-.1-.3-.2-.6-.1-.9l1.8-26.8c0-.2,0-.4.1-.7l7-18.6c.2-.5.7-1,1.2-1.2s1.2-.2,1.7,0c.6.2,1,.6,1.3,1.2.3.5.3,1.1.1,1.7l-6.9,18.3-1.6,24h12.9l.3-14.9c0-.3,0-.6.2-.9l4-9c.1-.3.3-.6.5-.8.2-.2.5-.4.8-.5.3-.1.6-.2.9-.2.3,0,.6,0,.9.2.3.1.5.3.8.5.2.2.4.5.5.8.1.3.1.6.1.9,0,.3-.1.6-.2.9l-3.8,8.6-.4,16.7c0,.6-.3,1.2-.7,1.6-.4.4-1,.7-1.6.6Z"/>
      <path id="path128" class="cls-3" d="M988,239.4h-11.9v7.1h11.9v-7.1Z"/>
      <path id="path129" class="cls-4" d="M988,248.8h-11.9c-.6,0-1.2-.2-1.6-.7-.4-.4-.7-1-.7-1.6v-7.1c0-.6.2-1.2.7-1.6.4-.4,1-.7,1.6-.7h11.9c.6,0,1.2.2,1.6.7.4.4.7,1,.7,1.6v7.1c0,.6-.2,1.2-.7,1.6-.4.4-1,.7-1.6.7ZM978.4,244.2h7.3v-2.5h-7.3v2.5Z"/>
      <path id="path130" class="cls-4" d="M1005,254.9h-17.6c-.3,0-.6,0-.9-.2-.3-.1-.6-.3-.8-.6-.2-.2-.4-.5-.5-.8-.1-.3-.1-.6-.1-.9l2-21.7-4-9.2c-.2-.6-.2-1.2,0-1.7.2-.6.7-1,1.2-1.2.5-.2,1.2-.3,1.7,0,.6.2,1,.6,1.3,1.2l4.2,9.7c.2.4.2.8.2,1.2l-1.8,19.8h13.1l3.8-24.8c0-.3.1-.6.3-.9.2-.3.4-.5.6-.7.2-.2.5-.3.8-.4.3,0,.6,0,.9,0,.3,0,.6.2.9.3.3.2.5.4.7.6.2.3.3.5.4.8s0,.6,0,.9l-2.7,18c.1,0,.2,0,.3,0h2.9c.1-.5.4-.9.8-1.2.4-.3.9-.4,1.4-.4s1,.2,1.4.4c.4.3.7.7.8,1.2h2.8c-.4-33.7-10.2-42.8-10.3-42.9-.5-.4-.7-1-.8-1.6,0-.6.2-1.2.6-1.7.4-.5,1-.7,1.6-.8.6,0,1.2.1,1.7.5.5.4,11.9,10.5,11.9,48.7s-.2,1.2-.7,1.6c-.4.4-1,.7-1.6.7h-12.5c-.3,0-.7,0-1-.2l-.7,4.4c0,.5-.4,1-.8,1.4-.4.4-.9.5-1.5.5h0ZM981.5,247.7c-.6,0-1.2-.2-1.6-.7-.4-.4-.7-1-.7-1.6v-.5c0-.6.2-1.2.7-1.6.4-.4,1-.7,1.6-.7s1.2.2,1.6.7c.4.4.7,1,.7,1.6v.5c0,.6-.2,1.2-.7,1.6-.4.4-1,.7-1.6.7Z"/>
      <g class="cls-1">
        <g id="g151">
          <path id="path131" class="cls-7" d="M1056.3,232.4c0,2-.8,3.9-1.6,5.7-.3,1.5-.6,3.3-.6,5.2,0,8.5,1.8,9.4,2.7,9.4s.5,0,.8-.2c0,0,0,0,0,0,0,.2-.4.7-.9.7-2.8,0-5.2-2.5-5.5-8.3-2.1,3.8-4.3,6.9-5.1,6.9-1.2,0-4.3-2.4-4.3-5.2s1.8-14.2,2.5-14.9c.3-.3.5-.4.9-.4,1.1,0,2.4,1.4,2.4,2.1s0,.2,0,.3c-1,1-2.9,9.2-2.9,13.3s.2,2.2.7,2.2c1.4,0,3.9-4.4,6.1-8.8.3-4.7,1.3-10.3,2.3-10.3s2.4.5,2.6,2.2h0Z"/>
          <path id="path132" class="cls-7" d="M1064.3,244.9c0-2.4.7-5.1.7-5.9s0-.3,0-.3c-.5,0-2.3,3.4-3.2,7.2,0,2-.2,3.5-.2,3.5,0,0,.1.3.1.5,0,.3-.1.7-.6.7-1,0-2.8-1.1-2.8-2.4s.7-2.1.7-8.1-1.1-2.3-1.1-2.6.4-.7.7-.7.8,0,1.4.6c1,1,1.4,3.2,1.6,5.4,1.1-2.7,2.6-5.4,3.5-5.4,2.4,0,3.1,1.2,3.1,1.8,0,.8-.6,4.4-.6,7.2s.3,3.5,1.2,3.5c1.4,0,2.1-5.4,2.2-6.2,0-.2.1-.3.3-.3.3,0,.7.5.7,1.1h0c-.2,2.1-.7,7.4-3.7,7.4s-4.1-2.7-4.1-6.8h0Z"/>
          <path id="path133" class="cls-7" d="M1076.8,250.7c-.4,0-1.5-.5-2.2-1.3-.6-.6-.9-2.9-.9-5.1s.3-5.4.7-5.7c.2-.2.5-.2.7-.2.5,0,1.1.2,1.5.6.2.2.4.6.4,1.1s-.2.5-.2.5c0,0-.5,3.8-.5,6.2s0,2.1.4,2.1c1.5,0,1.9-2.8,2.1-3.8,0,0,0-.1.2-.1.3,0,.8.2.8.5s0,1.3-.3,2.3c-.5,1.6-1.6,3-2.8,3h0ZM1075.4,231.7c.3-.3,1.1-.6,1.6-.6.9,0,1.5.7,1.5,1.6s0,.3-.2.4c-.4.4-.5,2.2-1.7,2.2s-1.6-.7-1.6-2,.1-1.2.5-1.5h0Z"/>
          <path id="path134" class="cls-7" d="M1081.3,244.5c0-5,2.4-7,4.9-7s2.6.8,2.6,2-1.1,3.8-1.9,3.8-.3-.1-.3-.3,0-.1,0-.2c.3-.3.8-1.4.8-3s-.3-1.4-.7-1.4c-.9,0-2.9,1.6-2.9,6.4s1.4,4.4,3.1,4.4c2.5,0,3.1-4,3.2-4.9,0-.2,0-.3.2-.3.3,0,.8.5.8,1.1h0c-.2,2-1.1,6.2-4.5,6.2s-5.4-3-5.4-6.8h0Z"/>
          <path id="path135" class="cls-7" d="M1106.3,248.5c0,1.3.5,1.5.8,1.5,1.1,0,2-4.3,2.1-5.2,0-.2.1-.3.3-.3.3,0,.7.5.7,1h0c-.2,2.1-1,6.1-3.5,6.1s-3.3-2.3-3.3-4.4.9-5.7.9-6.4-.4-.8-1-1.1c-.5,3.6-2.4,5.5-3.9,5.7-.5,3.3-1.9,5.9-3.7,5.9s-3.9-2-3.9-5.6,1.4-8,4.6-8,2.7.9,2.7,1.9,0,1-.3,1.2c.6.3.8,1,.8,1.7s0,1.2,0,1.8c1.1-.2,2.5-1.9,2.8-5-.7-.4-1.4-.8-1.4-1.4s.9-1.1,1.7-1.1.9.2.9.7,0,.7,0,1c1.4.5,3.8,1.5,3.8,3.2s-1,5.6-1,7h0ZM1098.3,240.5c0-.5-.2-1.4-.8-1.4-1.5,0-2.5,3.8-2.5,6.7s.3,3.1,1.2,3.1,1.6-2,2-3.8c-.6-.4-1-1.3-1-2.5s.6-1.9,1.3-2.1h0ZM1098.3,242s0,.3,0,.6,0,.2,0,.3v-.9Z"/>
          <path id="path136" class="cls-7" d="M1117.4,244.9c0-2.4.7-5.1.7-5.9s0-.3,0-.3c-.5,0-2.3,3.4-3.2,7.2,0,2-.2,3.5-.2,3.5,0,0,.1.3.1.5,0,.3-.1.7-.6.7-1,0-2.8-1.1-2.8-2.4s.7-2.1.7-8.1-1.1-2.3-1.1-2.6.4-.7.7-.7.8,0,1.4.6c1,1,1.4,3.2,1.6,5.4,1.1-2.7,2.6-5.4,3.5-5.4,2.4,0,3.1,1.2,3.1,1.8,0,.8-.6,4.4-.6,7.2s.3,3.5,1.2,3.5c1.4,0,2.1-5.4,2.2-6.2,0-.2.1-.3.3-.3.3,0,.7.5.7,1.1h0c-.2,2.1-.7,7.4-3.7,7.4s-4.1-2.7-4.1-6.8h0Z"/>
          <path id="path137" class="cls-7" d="M1147.6,247.9c0,.7,0,1.2.2,1.6h.3c1,0,5.6-2.9,5.6-9.2s-4.4-9.1-7.2-9.1-6.3,2.9-6.3,8,1.5,4.7,2.2,4.7.6-.3.9-.3c.6,0,0,.9-.7.9-2.4,0-6.3-1.2-6.3-6.1s3.2-8.6,8.7-8.6,11.7,5,11.7,11.2-4,11.5-6.8,11.5-2.1-.5-2.9-1.3c-.6,0-1.4-.2-1.8-.7-.7-.7-.8-2.6-.8-3.7,0-3.8.6-10,2.2-10s2.6.9,2.6,1.2c0,.8-1.7,1.4-1.7,9.9h0Z"/>
          <path id="path138" class="cls-7" d="M1167.3,244.1c0-.2.1-.3.3-.3.3,0,.7.5.7,1.1,0,2.5-1.9,6-4.6,6s-5-3.1-5-6.4c0-4.8,1.7-6.8,4-6.8,0-.6.5-.8.8-.8,1.5,0,2.1,1.1,2.1,3.2,0,3.3-2.3,5.9-4,5.9h-.2c.4,1.3,1.2,2.6,2.9,2.6s2.9-2.2,3.1-4.3h0ZM1163.2,238.7c-1.1.2-2.1,2.2-2.1,5.5s0,.4,0,.6c.6,0,2.3-1.7,2.3-4.6s-.1-1.2-.3-1.5h0Z"/>
          <path id="path139" class="cls-7" d="M1170.9,249.8c-.8-.8-1-4-1-7,0-4.6.8-11.1,1.4-11.7.2-.2.5-.3.8-.3.9,0,1.9,1,1.9,1.4s-1.7,4.3-1.7,13.2.8,3.8,1.1,3.8c.6,0,1.6-2.1,1.9-4.2,0,0,0-.1.2-.1.3,0,.8.2.8.5,0,1-.6,5.9-2.9,5.9s-1.9-.6-2.7-1.4h0Z"/>
          <path id="path140" class="cls-7" d="M1181.2,250.7c-.4,0-1.5-.5-2.2-1.3-.6-.6-.9-2.9-.9-5.1s.3-5.4.7-5.7c.2-.2.5-.2.7-.2.5,0,1.1.2,1.5.6.2.2.4.6.4,1.1s-.2.5-.2.5c0,0-.5,3.8-.5,6.2s0,2.1.4,2.1c1.5,0,1.9-2.8,2.1-3.8,0,0,0-.1.2-.1.3,0,.8.2.8.5s0,1.3-.3,2.3c-.5,1.6-1.6,3-2.8,3h0ZM1179.9,231.7c.3-.3,1.1-.6,1.6-.6.9,0,1.5.7,1.5,1.6s0,.3-.2.4c-.4.4-.5,2.2-1.7,2.2s-1.6-.7-1.6-2,.1-1.2.5-1.5h0Z"/>
          <path id="path141" class="cls-7" d="M1191.8,242.1c-.7-.9-1.2-2.1-1.2-2.9,0-1.4.5-2.5,1.5-2.5s1.5,1.3,1.5,2.4-.2,1.7-.5,3.1c.3.3.7.5,1,.5s.6-.1.8-.1.1,0,.1.1c0,.4-.4.8-1.1.8s-.7,0-1-.3c-.8,3.6-2.3,8.1-3.7,8.1s-1.3-.3-1.7-.6c-1.6-1.5-1.9-7.6-1.9-10.8s-.4-1.3-.4-1.5,0-.3.4-.3c.5,0,2.9.6,2.9,2v1.1c0,5.6,0,8,.8,8s1.8-4.1,2.4-7h0Z"/>
          <path id="path142" class="cls-7" d="M1203.8,244.1c0-.2.1-.3.3-.3.3,0,.7.5.7,1.1,0,2.5-1.9,6-4.6,6s-5-3.1-5-6.4c0-4.8,1.7-6.8,4-6.8,0-.6.5-.8.8-.8,1.5,0,2.1,1.1,2.1,3.2,0,3.3-2.3,5.9-4,5.9h-.2c.4,1.3,1.2,2.6,2.9,2.6s2.9-2.2,3.1-4.3h0ZM1199.7,238.7c-1.1.2-2.1,2.2-2.1,5.5s0,.4,0,.6c.6,0,2.3-1.7,2.3-4.6s-.1-1.2-.3-1.5h0Z"/>
          <path id="path143" class="cls-7" d="M1209.3,246.7c0-2.2.5-5.7.5-6.4s-.9-1-1.9-1.4c0,3.8-.5,6.5-.5,6.5,0,0,0,0-.1,0-.3,0-.9-.3-.9-.6h0s.3-2.5.4-6.4c-.8-.3-1.4-.7-1.4-1.2s.8-.9,1.5-.9,1,.2,1,.8v.8c1.7.6,4.8,1.6,4.8,2.8s-.6,5.9-.6,7.3.3,1.8.6,1.8c1.6,0,2.2-5.3,2.2-5.9,0-.2,0-.3.2-.3.3,0,.8.5.8,1.1h0c-.1,2-.9,6.3-3.5,6.3s-3.2-2.3-3.2-4.5h0Z"/>
          <path id="path144" class="cls-7" d="M1223.3,239.2c0-.5.1-1,.7-1s1.6,1.2,1.6,2.1-.2,2.7-.2,4.6,0,1.3,0,1.9c1.5-1.9,2.5-3.9,2.5-4.6s.2-.4.3-.4c.3,0,.6.4.6,1.5s-1.6,2.9-3.4,4.7c0,.8,0,1.7,0,2.8,0,3.6-1.4,6.1-4.5,6.1s-2.7-1.1-2.7-2,1-1.9,4.5-5.5c0-1.3.2-2.8.2-4.6v-.3c-.7,2.7-1.7,6.2-2.7,6.2-2.2,0-3.2-1.7-3.2-4s.8-7.7,1.6-7.7,2,.5,2,1.6-1,2.5-1,6.9.3,1.9.7,1.9c.9,0,2.7-8.7,2.7-9.4v-.8h0ZM1222.9,250.9c-1.5,1.7-2.5,3.3-2.5,4.1s.2.3.4.3c1,0,1.7-1.4,2.1-4.4h0Z"/>
          <path id="path145" class="cls-7" d="M1247.8,231.6c1.4-1.4,3.9-1.8,6.2-1.8,3.6,0,5.4,1.1,5.4,4.8,0,5.3-3.5,9.1-5.6,9.1s-1.6-.5-1.6-.7,0-.1.2-.1c1.8,0,3.6-4.4,3.6-8.1s-.8-3.3-2-3.3c-2.6,0-6.8,4.9-6.8,10.3s10,2.5,10,6.1-3,4.4-4.4,4.4c-2,0-4.9-1.4-4.9-2.4s.4-1,.7-1,.3,1.5,2.7,1.5,2.9-1.2,2.9-2.5-10.1-.5-10.1-6.5,1.2-7.5,3.6-9.9h0Z"/>
          <path id="path146" class="cls-7" d="M1268.6,244.1c0-.2.1-.3.3-.3.3,0,.7.5.7,1.1,0,2.5-1.9,6-4.6,6s-5-3.1-5-6.4c0-4.8,1.7-6.8,4-6.8,0-.6.5-.8.8-.8,1.5,0,2.1,1.1,2.1,3.2,0,3.3-2.3,5.9-4,5.9h-.2c.4,1.3,1.2,2.6,2.9,2.6s2.9-2.2,3.1-4.3h0ZM1264.5,238.7c-1.1.2-2.1,2.2-2.1,5.5s0,.4,0,.6c.6,0,2.3-1.7,2.3-4.6s-.1-1.2-.3-1.5h0Z"/>
          <path id="path147" class="cls-7" d="M1274.1,246.7c0-2.2.5-5.7.5-6.4s-.9-1-1.9-1.4c0,3.8-.5,6.5-.5,6.5,0,0,0,0-.1,0-.3,0-.9-.3-.9-.6h0s.3-2.5.4-6.4c-.8-.3-1.4-.7-1.4-1.2s.8-.9,1.5-.9,1,.2,1,.8v.8c1.7.6,4.8,1.6,4.8,2.8s-.6,5.9-.6,7.3.3,1.8.6,1.8c1.6,0,2.2-5.3,2.2-5.9,0-.2,0-.3.2-.3.3,0,.8.5.8,1.1h0c-.1,2-.9,6.3-3.5,6.3s-3.2-2.3-3.2-4.5h0Z"/>
          <path id="path148" class="cls-7" d="M1288.1,242.1c-.7-.9-1.2-2.1-1.2-2.9,0-1.4.5-2.5,1.5-2.5s1.5,1.3,1.5,2.4-.2,1.7-.5,3.1c.3.3.7.5,1,.5s.6-.1.8-.1.1,0,.1.1c0,.4-.4.8-1.1.8s-.7,0-1-.3c-.8,3.6-2.3,8.1-3.7,8.1s-1.3-.3-1.7-.6c-1.6-1.5-1.9-7.6-1.9-10.8s-.4-1.3-.4-1.5,0-.3.4-.3c.5,0,2.9.6,2.9,2v1.1c0,5.6,0,8,.8,8s1.8-4.1,2.4-7h0Z"/>
          <path id="path149" class="cls-7" d="M1295.1,250.7c-.4,0-1.5-.5-2.2-1.3-.6-.6-.9-2.9-.9-5.1s.3-5.4.7-5.7c.2-.2.5-.2.7-.2.5,0,1.1.2,1.5.6.2.2.4.6.4,1.1s-.2.5-.2.5c0,0-.5,3.8-.5,6.2s0,2.1.4,2.1c1.5,0,1.9-2.8,2.1-3.8,0,0,0-.1.2-.1.3,0,.8.2.8.5s0,1.3-.3,2.3c-.5,1.6-1.6,3-2.8,3h0ZM1293.7,231.7c.3-.3,1.1-.6,1.5-.6.9,0,1.5.7,1.5,1.6s0,.3-.2.4c-.4.4-.5,2.2-1.7,2.2s-1.6-.7-1.6-2,.1-1.2.5-1.5h0Z"/>
          <path id="path150" class="cls-7" d="M1299.5,244.5c0-5,2.4-7,4.9-7s2.6.8,2.6,2-1.1,3.8-1.9,3.8-.3-.1-.3-.3,0-.1,0-.2c.3-.3.8-1.4.8-3s-.3-1.4-.7-1.4c-.9,0-2.9,1.6-2.9,6.4s1.4,4.4,3.1,4.4c2.5,0,3.1-4,3.2-4.9,0-.2,0-.3.2-.3.3,0,.8.5.8,1.1h0c-.2,2-1.1,6.2-4.5,6.2s-5.4-3-5.4-6.8h0Z"/>
          <path id="path151" class="cls-7" d="M1319.5,244.1c0-.2.1-.3.3-.3.3,0,.7.5.7,1.1,0,2.5-1.9,6-4.6,6s-5-3.1-5-6.4c0-4.8,1.7-6.8,4-6.8,0-.6.5-.8.8-.8,1.5,0,2.1,1.1,2.1,3.2,0,3.3-2.3,5.9-4,5.9h-.2c.4,1.3,1.2,2.6,2.9,2.6s2.9-2.2,3.1-4.3h0ZM1315.4,238.7c-1.1.2-2.1,2.2-2.1,5.5s0,.4,0,.6c.6,0,2.3-1.7,2.3-4.6s-.1-1.2-.3-1.5h0Z"/>
        </g>
      </g>
    </g>
    <g id="text1" class="cls-9">
      <g class="cls-9">
        <path class="cls-7" d="M246,102.3v118.1h-15.5v-88.1l-39.3,88.1h-10.9l-39.4-88.2v88.2h-15.5v-118.1h16.7l43.7,97.6,43.7-97.6h16.6Z"/>
        <path class="cls-7" d="M272.2,148.1c3.9-7.2,9.2-12.8,16-16.8,6.8-4,14.3-6,22.6-6s15.3,1.8,21.3,5.3c6,3.5,10.5,8,13.5,13.3v-17.1h15.7v93.5h-15.7v-17.4c-3.1,5.5-7.7,10-13.7,13.6-6.1,3.6-13.2,5.4-21.2,5.4s-15.8-2-22.5-6.1c-6.7-4.1-12-9.8-15.9-17.2-3.9-7.4-5.8-15.8-5.8-25.3s1.9-17.9,5.8-25.2ZM341.4,155c-2.8-5.2-6.7-9.2-11.5-12-4.8-2.8-10.2-4.2-16-4.2s-11.1,1.4-15.9,4.1c-4.8,2.7-8.6,6.7-11.4,11.9-2.8,5.2-4.3,11.4-4.3,18.4s1.4,13.4,4.3,18.7c2.8,5.3,6.7,9.3,11.4,12.1,4.8,2.8,10.1,4.2,15.9,4.2s11.1-1.4,16-4.2c4.8-2.8,8.7-6.8,11.5-12.1,2.8-5.3,4.3-11.5,4.3-18.5s-1.4-13.2-4.3-18.4Z"/>
        <path class="cls-7" d="M387.6,148.1c3.9-7.2,9.2-12.8,16-16.8,6.8-4,14.4-6,22.8-6s14.1,1.7,20.3,5c6.3,3.4,11,7.8,14.3,13.2v-49.5h15.7v126.3h-15.7v-17.6c-3.1,5.6-7.6,10.2-13.7,13.7-6,3.6-13.1,5.4-21.2,5.4s-15.8-2-22.6-6.1c-6.8-4.1-12.1-9.8-16-17.2-3.9-7.4-5.8-15.8-5.8-25.3s1.9-17.9,5.8-25.2ZM456.7,155c-2.8-5.2-6.7-9.2-11.5-12-4.8-2.8-10.2-4.2-16-4.2s-11.1,1.4-15.9,4.1c-4.8,2.7-8.6,6.7-11.4,11.9-2.8,5.2-4.3,11.4-4.3,18.4s1.4,13.4,4.3,18.7c2.8,5.3,6.7,9.3,11.4,12.1,4.8,2.8,10.1,4.2,15.9,4.2s11.1-1.4,16-4.2c4.8-2.8,8.7-6.8,11.5-12.1,2.8-5.3,4.3-11.5,4.3-18.5s-1.4-13.2-4.3-18.4Z"/>
        <path class="cls-7" d="M587.8,179.4h-74.8c.6,9.2,3.7,16.4,9.5,21.6,5.7,5.2,12.7,7.8,20.9,7.8s12.3-1.6,16.8-4.7c4.5-3.1,7.7-7.3,9.5-12.5h16.7c-2.5,9-7.5,16.3-15,21.9-7.5,5.6-16.8,8.4-28,8.4s-16.8-2-23.8-6c-7-4-12.5-9.6-16.5-17-4-7.3-6-15.8-6-25.5s1.9-18.1,5.8-25.4c3.9-7.3,9.3-12.9,16.3-16.8,7-3.9,15-5.9,24.1-5.9s16.7,1.9,23.6,5.8c6.8,3.9,12.1,9.2,15.8,16,3.7,6.8,5.5,14.4,5.5,23s-.2,6.1-.5,9.4ZM568.3,151.5c-2.6-4.3-6.2-7.5-10.7-9.7-4.5-2.2-9.5-3.3-14.9-3.3-7.9,0-14.5,2.5-20.1,7.5-5.5,5-8.7,11.9-9.5,20.8h59.1c0-5.9-1.3-11-3.9-15.3Z"/>
        <path class="cls-7" d="M692.4,139.7h-19.6v80.7h-15.5v-80.7h-12.1v-12.8h12.1v-6.7c0-10.5,2.7-18.1,8.1-23,5.4-4.8,14.1-7.3,26-7.3v13c-6.8,0-11.6,1.3-14.4,4-2.8,2.7-4.2,7.1-4.2,13.2v6.7h19.6v12.8Z"/>
        <path class="cls-7" d="M727.5,215.9c-7.1-4-12.7-9.6-16.7-17-4-7.3-6.1-15.8-6.1-25.5s2.1-18,6.2-25.3c4.2-7.3,9.8-13,17-16.9s15.2-5.9,24.1-5.9,16.9,2,24.1,5.9,12.8,9.5,17,16.8c4.2,7.3,6.2,15.8,6.2,25.4s-2.1,18.2-6.4,25.5c-4.3,7.3-10,13-17.3,17-7.3,4-15.4,6-24.2,6s-16.7-2-23.8-6ZM767,204.3c4.9-2.6,8.8-6.5,11.9-11.8,3-5.2,4.5-11.6,4.5-19.1s-1.5-13.9-4.4-19.1c-3-5.2-6.8-9.1-11.6-11.7-4.8-2.6-10-3.8-15.5-3.8s-10.9,1.3-15.6,3.8c-4.7,2.6-8.5,6.5-11.3,11.7-2.8,5.2-4.3,11.6-4.3,19.1s1.4,14.1,4.2,19.3c2.8,5.2,6.5,9.1,11.2,11.7,4.7,2.6,9.8,3.8,15.4,3.8s10.8-1.3,15.7-3.9Z"/>
        <path class="cls-7" d="M846.9,129.6c5.1-3,11.2-4.4,18.5-4.4v16h-4.1c-17.4,0-26.1,9.4-26.1,28.3v50.9h-15.5v-93.5h15.5v15.2c2.7-5.3,6.6-9.5,11.7-12.5Z"/>
      </g>
    </g>
  </g>
</svg>